<?xml version="1.0" encoding="UTF-8" standalone="no"?>
<!DOCTYPE svg PUBLIC "-//W3C//DTD SVG 1.1//EN" "http://www.w3.org/Graphics/SVG/1.1/DTD/svg11.dtd">
<svg width="100%" height="100%" viewBox="0 0 64 64" version="1.1" xmlns="http://www.w3.org/2000/svg" xmlns:xlink="http://www.w3.org/1999/xlink" xml:space="preserve" xmlns:serif="http://www.serif.com/" style="fill-rule:evenodd;clip-rule:evenodd;stroke-linejoin:round;">
    <g id="Layer-1" serif:id="Layer 1">
        <path id="path2993" d="M6.021,11.937L32.8,22.552L58.131,9.339L31.36,2.529L6.021,11.937Z" style="fill:rgb(235,189,235);fill-rule:nonzero;stroke:black;stroke-width:2px;"/>
        <path id="path2995" d="M58.45,9.658L58.274,45.174L33.143,61.695L31.969,22.568L58.45,9.658Z" style="fill:rgb(212,115,212);fill-rule:nonzero;stroke:black;stroke-width:2px;"/>
        <path id="path3825" d="M5.853,11.945L32.488,22.408L32.975,61.863L6.483,50.905L5.853,11.945Z" style="fill:url(#_Linear1);stroke:black;stroke-width:2px;"/>
        <g id="path835" transform="matrix(-0.0915842,-0.995797,0.995797,-0.0915842,0,0)">
            <path d="M-25.556,15.011C-25.556,19.472 -31.203,23.145 -38.071,23.15C-44.938,23.156 -50.598,19.491 -50.614,15.03C-50.63,10.568 -44.997,6.887 -38.129,6.871C-31.262,6.855 -25.589,10.511 -25.557,14.973L-38.085,15.011L-25.556,15.011Z" style="fill:rgb(114,53,0);fill-rule:nonzero;"/>
        </g>
        <g id="path835-3" transform="matrix(0.0793924,-0.996843,0.996843,0.0793924,0,0)">
            <path d="M-18.19,48.294C-18.19,52.755 -23.836,56.428 -30.704,56.433C-37.571,56.439 -43.231,52.774 -43.247,48.313C-43.263,43.851 -37.63,40.17 -30.762,40.154C-23.895,40.138 -18.222,43.794 -18.19,48.256L-30.718,48.294L-18.19,48.294Z" style="fill:rgb(114,53,0);fill-rule:nonzero;"/>
        </g>
        <g id="path835-3-6" transform="matrix(0.980513,-0.196456,0.563181,0.826334,0,0)">
            <path d="M30.277,18.841C30.277,21.007 26.017,22.79 20.835,22.792C15.653,22.795 11.383,21.016 11.371,18.85C11.359,16.685 15.609,14.897 20.791,14.89C25.972,14.882 30.253,16.657 30.277,18.823L20.824,18.841L30.277,18.841Z" style="fill:rgb(114,53,0);fill-rule:nonzero;"/>
        </g>
        <g transform="matrix(1.16488,0,0,1.25233,-18.0603,-21.0646)">
            <ellipse cx="42.992" cy="36.8" rx="10.873" ry="10.263" style="fill:rgb(232,178,240);"/>
        </g>
        <g transform="matrix(0.816343,-0.012389,0.015323,1.10493,-2.82904,1.76413)">
            <text x="31.773px" y="24.602px" style="font-family:'ArialMT', 'Arial', sans-serif;font-size:12px;">Add</text>
        </g>
    </g>
    <defs>
        <linearGradient id="_Linear1" x1="0" y1="0" x2="1" y2="0" gradientUnits="userSpaceOnUse" gradientTransform="matrix(-11.1603,-18.3077,18.3077,-11.1603,28.4888,54.5683)"><stop offset="0" style="stop-color:rgb(212,115,212);stop-opacity:1"/><stop offset="1" style="stop-color:rgb(235,189,235);stop-opacity:1"/></linearGradient>
    </defs>
</svg>
